<svg xmlns="http://www.w3.org/2000/svg" xmlns:xlink="http://www.w3.org/1999/xlink" width="1204" zoomAndPan="magnify" viewBox="0 0 902.88 809.999993" height="1080" preserveAspectRatio="xMidYMid meet" version="1.0"><defs><g/><clipPath id="d6c9e893a7"><path d="M 0 0.0546875 L 902.761719 0.0546875 L 902.761719 809.945312 L 0 809.945312 Z M 0 0.0546875 " clip-rule="nonzero"/></clipPath></defs><g clip-path="url(#d6c9e893a7)"><path fill="#ffffff" d="M 0 0.0546875 L 902.878906 0.0546875 L 902.878906 809.945312 L 0 809.945312 Z M 0 0.0546875 " fill-opacity="1" fill-rule="nonzero"/><path fill="#393939" d="M 0 0.0546875 L 902.878906 0.0546875 L 902.878906 809.945312 L 0 809.945312 Z M 0 0.0546875 " fill-opacity="1" fill-rule="nonzero"/></g><g fill="#545454" fill-opacity="1"><g transform="translate(191.30115, 427.87228)"><g><path d="M 1.984375 -23.421875 C 1.984375 -28.046875 2.914062 -32.160156 4.78125 -35.765625 C 6.65625 -39.367188 9.328125 -42.171875 12.796875 -44.171875 C 16.273438 -46.171875 20.367188 -47.171875 25.078125 -47.171875 C 29.117188 -47.171875 32.734375 -46.410156 35.921875 -44.890625 C 39.117188 -43.378906 41.71875 -41.238281 43.71875 -38.46875 C 45.71875 -35.695312 47.046875 -32.460938 47.703125 -28.765625 L 32.265625 -28.765625 C 31.554688 -30.304688 30.550781 -31.503906 29.25 -32.359375 C 27.957031 -33.222656 26.476562 -33.65625 24.8125 -33.65625 C 22.34375 -33.65625 20.394531 -32.726562 18.96875 -30.875 C 17.539062 -29.03125 16.828125 -26.546875 16.828125 -23.421875 C 16.828125 -20.296875 17.539062 -17.8125 18.96875 -15.96875 C 20.394531 -14.125 22.34375 -13.203125 24.8125 -13.203125 C 26.476562 -13.203125 27.957031 -13.628906 29.25 -14.484375 C 30.550781 -15.335938 31.554688 -16.535156 32.265625 -18.078125 L 47.703125 -18.078125 C 47.046875 -14.378906 45.71875 -11.144531 43.71875 -8.375 C 41.71875 -5.601562 39.117188 -3.457031 35.921875 -1.9375 C 32.734375 -0.425781 29.117188 0.328125 25.078125 0.328125 C 20.367188 0.328125 16.273438 -0.671875 12.796875 -2.671875 C 9.328125 -4.671875 6.65625 -7.472656 4.78125 -11.078125 C 2.914062 -14.691406 1.984375 -18.804688 1.984375 -23.421875 Z M 1.984375 -23.421875 "/></g></g></g><g fill="#545454" fill-opacity="1"><g transform="translate(240.983692, 427.87228)"><g><path d="M 20.984375 0.46875 C 17.242188 0.46875 13.878906 -0.300781 10.890625 -1.84375 C 7.898438 -3.382812 5.554688 -5.59375 3.859375 -8.46875 C 2.160156 -11.351562 1.3125 -14.734375 1.3125 -18.609375 C 1.3125 -22.484375 2.160156 -25.859375 3.859375 -28.734375 C 5.554688 -31.617188 7.898438 -33.828125 10.890625 -35.359375 C 13.878906 -36.898438 17.242188 -37.671875 20.984375 -37.671875 C 24.722656 -37.671875 28.085938 -36.898438 31.078125 -35.359375 C 34.066406 -33.828125 36.40625 -31.617188 38.09375 -28.734375 C 39.789062 -25.859375 40.640625 -22.484375 40.640625 -18.609375 C 40.640625 -14.734375 39.789062 -11.351562 38.09375 -8.46875 C 36.40625 -5.59375 34.066406 -3.382812 31.078125 -1.84375 C 28.085938 -0.300781 24.722656 0.46875 20.984375 0.46875 Z M 20.984375 -12.203125 C 22.347656 -12.203125 23.488281 -12.738281 24.40625 -13.8125 C 25.332031 -14.894531 25.796875 -16.492188 25.796875 -18.609375 C 25.796875 -20.722656 25.332031 -22.316406 24.40625 -23.390625 C 23.488281 -24.472656 22.347656 -25.015625 20.984375 -25.015625 C 19.617188 -25.015625 18.472656 -24.472656 17.546875 -23.390625 C 16.628906 -22.316406 16.171875 -20.722656 16.171875 -18.609375 C 16.171875 -16.492188 16.617188 -14.894531 17.515625 -13.8125 C 18.421875 -12.738281 19.578125 -12.203125 20.984375 -12.203125 Z M 20.984375 -12.203125 "/></g></g></g><g fill="#545454" fill-opacity="1"><g transform="translate(282.94663, 427.87228)"><g><path d="M 52.984375 -37.484375 C 57.734375 -37.484375 61.414062 -36.050781 64.03125 -33.1875 C 66.65625 -30.332031 67.96875 -26.460938 67.96875 -21.578125 L 67.96875 0 L 53.375 0 L 53.375 -19.734375 C 53.375 -21.316406 52.898438 -22.554688 51.953125 -23.453125 C 51.015625 -24.359375 49.753906 -24.8125 48.171875 -24.8125 C 46.546875 -24.8125 45.269531 -24.359375 44.34375 -23.453125 C 43.414062 -22.554688 42.953125 -21.316406 42.953125 -19.734375 L 42.953125 0 L 28.375 0 L 28.375 -19.734375 C 28.375 -21.316406 27.898438 -22.554688 26.953125 -23.453125 C 26.003906 -24.359375 24.738281 -24.8125 23.15625 -24.8125 C 21.53125 -24.8125 20.253906 -24.359375 19.328125 -23.453125 C 18.410156 -22.554688 17.953125 -21.316406 17.953125 -19.734375 L 17.953125 0 L 3.296875 0 L 3.296875 -37.21875 L 17.953125 -37.21875 L 17.953125 -32.203125 C 19.003906 -33.785156 20.441406 -35.0625 22.265625 -36.03125 C 24.097656 -37 26.242188 -37.484375 28.703125 -37.484375 C 31.390625 -37.484375 33.765625 -36.898438 35.828125 -35.734375 C 37.898438 -34.566406 39.550781 -32.925781 40.78125 -30.8125 C 42.144531 -32.75 43.878906 -34.34375 45.984375 -35.59375 C 48.097656 -36.851562 50.429688 -37.484375 52.984375 -37.484375 Z M 52.984375 -37.484375 "/></g></g></g><g fill="#545454" fill-opacity="1"><g transform="translate(353.940537, 427.87228)"><g><path d="M 10.6875 -40.1875 C 8.132812 -40.1875 6.085938 -40.867188 4.546875 -42.234375 C 3.015625 -43.597656 2.25 -45.3125 2.25 -47.375 C 2.25 -49.488281 3.015625 -51.238281 4.546875 -52.625 C 6.085938 -54.007812 8.132812 -54.703125 10.6875 -54.703125 C 13.195312 -54.703125 15.21875 -54.007812 16.75 -52.625 C 18.289062 -51.238281 19.0625 -49.488281 19.0625 -47.375 C 19.0625 -45.3125 18.289062 -43.597656 16.75 -42.234375 C 15.21875 -40.867188 13.195312 -40.1875 10.6875 -40.1875 Z M 17.953125 -37.21875 L 17.953125 0 L 3.296875 0 L 3.296875 -37.21875 Z M 17.953125 -37.21875 "/></g></g></g><g fill="#545454" fill-opacity="1"><g transform="translate(375.185923, 427.87228)"><g><path d="M 29.359375 -37.484375 C 33.628906 -37.484375 36.960938 -36.050781 39.359375 -33.1875 C 41.753906 -30.332031 42.953125 -26.460938 42.953125 -21.578125 L 42.953125 0 L 28.375 0 L 28.375 -19.734375 C 28.375 -21.492188 27.898438 -22.890625 26.953125 -23.921875 C 26.003906 -24.953125 24.738281 -25.46875 23.15625 -25.46875 C 21.53125 -25.46875 20.253906 -24.953125 19.328125 -23.921875 C 18.410156 -22.890625 17.953125 -21.492188 17.953125 -19.734375 L 17.953125 0 L 3.296875 0 L 3.296875 -37.21875 L 17.953125 -37.21875 L 17.953125 -31.546875 C 19.085938 -33.304688 20.613281 -34.734375 22.53125 -35.828125 C 24.445312 -36.929688 26.722656 -37.484375 29.359375 -37.484375 Z M 29.359375 -37.484375 "/></g></g></g><g fill="#545454" fill-opacity="1"><g transform="translate(421.173603, 427.87228)"><g><path d="M 16.6875 -37.671875 C 19.113281 -37.671875 21.207031 -37.175781 22.96875 -36.1875 C 24.726562 -35.195312 26.066406 -33.847656 26.984375 -32.140625 L 26.984375 -37.21875 L 41.5625 -37.21875 L 41.5625 -0.65625 C 41.5625 2.8125 40.925781 5.972656 39.65625 8.828125 C 38.382812 11.691406 36.328125 13.984375 33.484375 15.703125 C 30.648438 17.421875 27.007812 18.28125 22.5625 18.28125 C 16.582031 18.28125 11.84375 16.878906 8.34375 14.078125 C 4.84375 11.285156 2.851562 7.492188 2.375 2.703125 L 16.765625 2.703125 C 17.160156 4.640625 18.742188 5.609375 21.515625 5.609375 C 23.222656 5.609375 24.5625 5.164062 25.53125 4.28125 C 26.5 3.40625 26.984375 1.757812 26.984375 -0.65625 L 26.984375 -5.078125 C 26.066406 -3.359375 24.726562 -2.003906 22.96875 -1.015625 C 21.207031 -0.0234375 19.113281 0.46875 16.6875 0.46875 C 13.789062 0.46875 11.175781 -0.289062 8.84375 -1.8125 C 6.507812 -3.332031 4.671875 -5.53125 3.328125 -8.40625 C 1.984375 -11.289062 1.3125 -14.691406 1.3125 -18.609375 C 1.3125 -22.523438 1.984375 -25.921875 3.328125 -28.796875 C 4.671875 -31.679688 6.507812 -33.878906 8.84375 -35.390625 C 11.175781 -36.910156 13.789062 -37.671875 16.6875 -37.671875 Z M 26.984375 -18.609375 C 26.984375 -20.585938 26.476562 -22.125 25.46875 -23.21875 C 24.457031 -24.320312 23.160156 -24.875 21.578125 -24.875 C 19.992188 -24.875 18.695312 -24.320312 17.6875 -23.21875 C 16.675781 -22.125 16.171875 -20.585938 16.171875 -18.609375 C 16.171875 -16.628906 16.675781 -15.085938 17.6875 -13.984375 C 18.695312 -12.890625 19.992188 -12.34375 21.578125 -12.34375 C 23.160156 -12.34375 24.457031 -12.890625 25.46875 -13.984375 C 26.476562 -15.085938 26.984375 -16.628906 26.984375 -18.609375 Z M 26.984375 -18.609375 "/></g></g></g><g fill="#545454" fill-opacity="1"><g transform="translate(466.039648, 427.87228)"><g/></g></g><g fill="#545454" fill-opacity="1"><g transform="translate(477.256159, 427.87228)"><g><path d="M 21.578125 0.46875 C 15.992188 0.46875 11.382812 -0.835938 7.75 -3.453125 C 4.125 -6.078125 2.15625 -9.921875 1.84375 -14.984375 L 17.421875 -14.984375 C 17.640625 -12.296875 18.828125 -10.953125 20.984375 -10.953125 C 21.773438 -10.953125 22.445312 -11.140625 23 -11.515625 C 23.550781 -11.890625 23.828125 -12.472656 23.828125 -13.265625 C 23.828125 -14.359375 23.226562 -15.242188 22.03125 -15.921875 C 20.84375 -16.609375 19 -17.394531 16.5 -18.28125 C 13.507812 -19.332031 11.035156 -20.363281 9.078125 -21.375 C 7.117188 -22.382812 5.429688 -23.859375 4.015625 -25.796875 C 2.609375 -27.734375 1.929688 -30.21875 1.984375 -33.25 C 1.984375 -36.289062 2.765625 -38.875 4.328125 -41 C 5.890625 -43.132812 8.019531 -44.753906 10.71875 -45.859375 C 13.425781 -46.960938 16.472656 -47.515625 19.859375 -47.515625 C 25.578125 -47.515625 30.117188 -46.191406 33.484375 -43.546875 C 36.847656 -40.910156 38.617188 -37.191406 38.796875 -32.390625 L 23.03125 -32.390625 C 22.988281 -33.710938 22.65625 -34.660156 22.03125 -35.234375 C 21.414062 -35.804688 20.671875 -36.09375 19.796875 -36.09375 C 19.179688 -36.09375 18.675781 -35.882812 18.28125 -35.46875 C 17.882812 -35.050781 17.6875 -34.46875 17.6875 -33.71875 C 17.6875 -32.664062 18.269531 -31.796875 19.4375 -31.109375 C 20.601562 -30.429688 22.460938 -29.609375 25.015625 -28.640625 C 27.953125 -27.535156 30.378906 -26.476562 32.296875 -25.46875 C 34.210938 -24.457031 35.875 -23.050781 37.28125 -21.25 C 38.6875 -19.445312 39.390625 -17.179688 39.390625 -14.453125 C 39.390625 -11.585938 38.6875 -9.019531 37.28125 -6.75 C 35.875 -4.488281 33.828125 -2.71875 31.140625 -1.4375 C 28.460938 -0.164062 25.273438 0.46875 21.578125 0.46875 Z M 21.578125 0.46875 "/></g></g></g><g fill="#545454" fill-opacity="1"><g transform="translate(518.493329, 427.87228)"><g><path d="M 20.984375 0.46875 C 17.242188 0.46875 13.878906 -0.300781 10.890625 -1.84375 C 7.898438 -3.382812 5.554688 -5.59375 3.859375 -8.46875 C 2.160156 -11.351562 1.3125 -14.734375 1.3125 -18.609375 C 1.3125 -22.484375 2.160156 -25.859375 3.859375 -28.734375 C 5.554688 -31.617188 7.898438 -33.828125 10.890625 -35.359375 C 13.878906 -36.898438 17.242188 -37.671875 20.984375 -37.671875 C 24.722656 -37.671875 28.085938 -36.898438 31.078125 -35.359375 C 34.066406 -33.828125 36.40625 -31.617188 38.09375 -28.734375 C 39.789062 -25.859375 40.640625 -22.484375 40.640625 -18.609375 C 40.640625 -14.734375 39.789062 -11.351562 38.09375 -8.46875 C 36.40625 -5.59375 34.066406 -3.382812 31.078125 -1.84375 C 28.085938 -0.300781 24.722656 0.46875 20.984375 0.46875 Z M 20.984375 -12.203125 C 22.347656 -12.203125 23.488281 -12.738281 24.40625 -13.8125 C 25.332031 -14.894531 25.796875 -16.492188 25.796875 -18.609375 C 25.796875 -20.722656 25.332031 -22.316406 24.40625 -23.390625 C 23.488281 -24.472656 22.347656 -25.015625 20.984375 -25.015625 C 19.617188 -25.015625 18.472656 -24.472656 17.546875 -23.390625 C 16.628906 -22.316406 16.171875 -20.722656 16.171875 -18.609375 C 16.171875 -16.492188 16.617188 -14.894531 17.515625 -13.8125 C 18.421875 -12.738281 19.578125 -12.203125 20.984375 -12.203125 Z M 20.984375 -12.203125 "/></g></g></g><g fill="#545454" fill-opacity="1"><g transform="translate(560.456279, 427.87228)"><g><path d="M 20.984375 0.46875 C 17.242188 0.46875 13.878906 -0.300781 10.890625 -1.84375 C 7.898438 -3.382812 5.554688 -5.59375 3.859375 -8.46875 C 2.160156 -11.351562 1.3125 -14.734375 1.3125 -18.609375 C 1.3125 -22.484375 2.160156 -25.859375 3.859375 -28.734375 C 5.554688 -31.617188 7.898438 -33.828125 10.890625 -35.359375 C 13.878906 -36.898438 17.242188 -37.671875 20.984375 -37.671875 C 24.722656 -37.671875 28.085938 -36.898438 31.078125 -35.359375 C 34.066406 -33.828125 36.40625 -31.617188 38.09375 -28.734375 C 39.789062 -25.859375 40.640625 -22.484375 40.640625 -18.609375 C 40.640625 -14.734375 39.789062 -11.351562 38.09375 -8.46875 C 36.40625 -5.59375 34.066406 -3.382812 31.078125 -1.84375 C 28.085938 -0.300781 24.722656 0.46875 20.984375 0.46875 Z M 20.984375 -12.203125 C 22.347656 -12.203125 23.488281 -12.738281 24.40625 -13.8125 C 25.332031 -14.894531 25.796875 -16.492188 25.796875 -18.609375 C 25.796875 -20.722656 25.332031 -22.316406 24.40625 -23.390625 C 23.488281 -24.472656 22.347656 -25.015625 20.984375 -25.015625 C 19.617188 -25.015625 18.472656 -24.472656 17.546875 -23.390625 C 16.628906 -22.316406 16.171875 -20.722656 16.171875 -18.609375 C 16.171875 -16.492188 16.617188 -14.894531 17.515625 -13.8125 C 18.421875 -12.738281 19.578125 -12.203125 20.984375 -12.203125 Z M 20.984375 -12.203125 "/></g></g></g><g fill="#545454" fill-opacity="1"><g transform="translate(602.419206, 427.87228)"><g><path d="M 29.359375 -37.484375 C 33.628906 -37.484375 36.960938 -36.050781 39.359375 -33.1875 C 41.753906 -30.332031 42.953125 -26.460938 42.953125 -21.578125 L 42.953125 0 L 28.375 0 L 28.375 -19.734375 C 28.375 -21.492188 27.898438 -22.890625 26.953125 -23.921875 C 26.003906 -24.953125 24.738281 -25.46875 23.15625 -25.46875 C 21.53125 -25.46875 20.253906 -24.953125 19.328125 -23.921875 C 18.410156 -22.890625 17.953125 -21.492188 17.953125 -19.734375 L 17.953125 0 L 3.296875 0 L 3.296875 -37.21875 L 17.953125 -37.21875 L 17.953125 -31.546875 C 19.085938 -33.304688 20.613281 -34.734375 22.53125 -35.828125 C 24.445312 -36.929688 26.722656 -37.484375 29.359375 -37.484375 Z M 29.359375 -37.484375 "/></g></g></g><g fill="#545454" fill-opacity="1"><g transform="translate(648.406896, 427.87228)"><g><path d="M 10.5625 0.53125 C 8.007812 0.53125 5.960938 -0.148438 4.421875 -1.515625 C 2.878906 -2.878906 2.109375 -4.597656 2.109375 -6.671875 C 2.109375 -8.773438 2.878906 -10.519531 4.421875 -11.90625 C 5.960938 -13.289062 8.007812 -13.984375 10.5625 -13.984375 C 13.0625 -13.984375 15.082031 -13.289062 16.625 -11.90625 C 18.164062 -10.519531 18.9375 -8.773438 18.9375 -6.671875 C 18.9375 -4.597656 18.164062 -2.878906 16.625 -1.515625 C 15.082031 -0.148438 13.0625 0.53125 10.5625 0.53125 Z M 10.5625 0.53125 "/></g></g></g><g fill="#545454" fill-opacity="1"><g transform="translate(669.454361, 427.87228)"><g><path d="M 10.5625 0.53125 C 8.007812 0.53125 5.960938 -0.148438 4.421875 -1.515625 C 2.878906 -2.878906 2.109375 -4.597656 2.109375 -6.671875 C 2.109375 -8.773438 2.878906 -10.519531 4.421875 -11.90625 C 5.960938 -13.289062 8.007812 -13.984375 10.5625 -13.984375 C 13.0625 -13.984375 15.082031 -13.289062 16.625 -11.90625 C 18.164062 -10.519531 18.9375 -8.773438 18.9375 -6.671875 C 18.9375 -4.597656 18.164062 -2.878906 16.625 -1.515625 C 15.082031 -0.148438 13.0625 0.53125 10.5625 0.53125 Z M 10.5625 0.53125 "/></g></g></g><g fill="#545454" fill-opacity="1"><g transform="translate(690.501825, 427.87228)"><g><path d="M 10.5625 0.53125 C 8.007812 0.53125 5.960938 -0.148438 4.421875 -1.515625 C 2.878906 -2.878906 2.109375 -4.597656 2.109375 -6.671875 C 2.109375 -8.773438 2.878906 -10.519531 4.421875 -11.90625 C 5.960938 -13.289062 8.007812 -13.984375 10.5625 -13.984375 C 13.0625 -13.984375 15.082031 -13.289062 16.625 -11.90625 C 18.164062 -10.519531 18.9375 -8.773438 18.9375 -6.671875 C 18.9375 -4.597656 18.164062 -2.878906 16.625 -1.515625 C 15.082031 -0.148438 13.0625 0.53125 10.5625 0.53125 Z M 10.5625 0.53125 "/></g></g></g></svg>