<svg xmlns="http://www.w3.org/2000/svg" xmlns:xlink="http://www.w3.org/1999/xlink" width="1080" zoomAndPan="magnify" viewBox="0 0 810 809.999993" height="1080" preserveAspectRatio="xMidYMid meet" version="1.0"><defs><clipPath id="c0a736c9c7"><path d="M 42.375 43 L 774.375 43 L 774.375 774 L 42.375 774 Z M 42.375 43 " clip-rule="nonzero"/></clipPath></defs><g clip-path="url(#c0a736c9c7)"><path fill="#ffffff" d="M 682.496094 43.804688 L 134.191406 43.804688 C 83.804688 43.804688 42.375 85.171875 42.375 135.332031 L 42.375 681.117188 C 42.375 731.285156 83.804688 773.085938 134.191406 773.085938 L 407.015625 773.085938 L 407.015625 521.414062 L 316.929688 521.414062 L 316.929688 409.875 L 407.015625 409.875 L 407.015625 317.261719 C 407.015625 241.894531 469.710938 182.511719 545.421875 182.511719 L 638.667969 182.511719 L 638.667969 295.480469 L 591.113281 295.480469 C 565.894531 295.480469 545.722656 292.152344 545.722656 317.261719 L 545.722656 409.875 L 659.65625 409.875 L 613.960938 521.414062 L 545.722656 521.414062 L 545.722656 773.085938 L 682.496094 773.085938 C 732.898438 773.085938 774.515625 731.285156 774.515625 681.117188 L 774.515625 135.332031 C 774.515625 85.171875 732.898438 43.804688 682.496094 43.804688 Z M 682.496094 43.804688 " fill-opacity="1" fill-rule="nonzero"/></g></svg>