<svg xmlns="http://www.w3.org/2000/svg" xmlns:xlink="http://www.w3.org/1999/xlink" width="1204" zoomAndPan="magnify" viewBox="0 0 902.88 809.999993" height="1080" preserveAspectRatio="xMidYMid meet" version="1.0"><defs><clipPath id="4dac508d47"><path d="M 127.484375 81.042969 L 775.398438 81.042969 L 775.398438 728.957031 L 127.484375 728.957031 Z M 127.484375 81.042969 " clip-rule="nonzero"/></clipPath></defs><g clip-path="url(#4dac508d47)"><path fill="#dd5390" d="M 451.441406 81.042969 C 272.523438 81.042969 127.484375 226.085938 127.484375 405 C 127.484375 583.914062 272.523438 728.957031 451.441406 728.957031 C 630.355469 728.957031 775.398438 583.914062 775.398438 405 C 775.398438 226.085938 630.355469 81.042969 451.441406 81.042969 Z M 451.441406 704.417969 C 286.074219 704.417969 152.019531 570.363281 152.019531 405 C 152.019531 239.636719 286.074219 105.582031 451.441406 105.582031 C 616.804688 105.582031 750.859375 239.636719 750.859375 405 C 750.859375 570.363281 616.804688 704.417969 451.441406 704.417969 Z M 451.441406 704.417969 " fill-opacity="1" fill-rule="nonzero"/></g><path fill="#dd5390" d="M 413.417969 563.792969 C 405.292969 564.574219 398.804688 565.46875 392.285156 565.777344 C 355.320312 567.523438 327.957031 552.949219 311.359375 518.972656 C 306.074219 508.148438 299.308594 497.9375 292.261719 488.132812 C 288.03125 482.242188 282.101562 477.511719 276.625 472.609375 L 276.558594 472.550781 C 273.171875 469.570312 274.667969 463.996094 279.113281 463.246094 C 284.335938 462.371094 289.203125 463.3125 293.949219 464.523438 C 308.8125 468.304688 318.351562 478.839844 325.953125 491.441406 C 343.144531 519.941406 372.746094 531.828125 404.757812 523.339844 C 410.191406 521.898438 412.585938 519.558594 413.769531 513.628906 C 415.152344 506.71875 417.023438 499.902344 419.042969 492.957031 C 419.191406 492.449219 419.3125 491.929688 419.40625 491.410156 C 419.503906 490.886719 419.570312 490.359375 419.613281 489.832031 C 419.65625 489.300781 419.671875 488.769531 419.660156 488.238281 C 419.648438 487.707031 419.609375 487.179688 419.542969 486.652344 C 419.480469 486.125 419.386719 485.601562 419.269531 485.085938 C 419.152344 484.566406 419.007812 484.054688 418.835938 483.550781 C 418.667969 483.050781 418.472656 482.554688 418.25 482.074219 C 418.03125 481.589844 417.789062 481.117188 417.519531 480.660156 C 417.253906 480.199219 416.960938 479.753906 416.648438 479.328125 C 416.335938 478.898438 416.003906 478.484375 415.648438 478.089844 C 415.292969 477.695312 414.917969 477.316406 414.527344 476.960938 C 414.132812 476.601562 413.722656 476.265625 413.296875 475.949219 C 412.871094 475.632812 412.425781 475.339844 411.972656 475.066406 C 411.515625 474.796875 411.042969 474.550781 410.5625 474.324219 C 410.082031 474.101562 409.589844 473.902344 409.085938 473.730469 C 408.585938 473.554688 408.074219 473.410156 407.558594 473.285156 L 407.378906 473.242188 C 374.164062 465.296875 345.472656 450.5 326.984375 420.148438 C 317.097656 403.917969 312.207031 386.039062 312.460938 367.414062 C 312.742188 346.28125 314.613281 325.101562 317.042969 304.089844 C 318.75 289.292969 325.605469 276.1875 336.242188 265.550781 C 339.953125 261.839844 340.265625 258.730469 338.476562 253.929688 C 331.152344 234.269531 332.421875 214.566406 338.925781 194.863281 C 340.761719 189.304688 343.363281 188.511719 348.683594 190.183594 C 365.140625 195.363281 377.417969 206.074219 388.210938 218.898438 L 388.320312 219.03125 C 388.992188 219.839844 389.722656 220.59375 390.511719 221.296875 C 391.296875 221.996094 392.132812 222.636719 393.015625 223.210938 C 393.894531 223.789062 394.816406 224.296875 395.773438 224.734375 C 396.730469 225.175781 397.714844 225.542969 398.726562 225.835938 C 399.738281 226.125 400.769531 226.34375 401.8125 226.480469 C 402.855469 226.621094 403.90625 226.683594 404.960938 226.664062 C 406.011719 226.648438 407.058594 226.554688 408.097656 226.378906 C 409.136719 226.207031 410.160156 225.957031 411.160156 225.632812 C 445.3125 214.433594 497.125 214.28125 529.335938 225.367188 C 530.34375 225.710938 531.367188 225.972656 532.414062 226.160156 C 533.460938 226.347656 534.515625 226.457031 535.578125 226.484375 C 536.640625 226.511719 537.699219 226.460938 538.753906 226.328125 C 539.808594 226.199219 540.847656 225.988281 541.867188 225.699219 C 542.890625 225.414062 543.886719 225.050781 544.855469 224.613281 C 545.824219 224.175781 546.753906 223.667969 547.644531 223.089844 C 548.539062 222.511719 549.382812 221.871094 550.175781 221.167969 C 550.972656 220.460938 551.710938 219.699219 552.390625 218.886719 L 552.492188 218.761719 C 563.304688 205.9375 575.632812 195.3125 592.082031 190.117188 C 597.597656 188.375 599.949219 189.703125 601.695312 195.066406 C 608.113281 214.78125 609.207031 234.367188 602.265625 254.230469 C 601.289062 257.027344 601.328125 261.890625 603.066406 263.65625 C 617.8125 278.613281 624.269531 297.183594 625.90625 317.300781 C 627.488281 336.738281 629.203125 356.507812 627.398438 375.808594 C 622.703125 426.003906 592.183594 455.238281 545.773438 469.773438 C 541.800781 471.015625 537.765625 472.058594 533.648438 473.03125 C 533.113281 473.160156 532.589844 473.3125 532.070312 473.492188 C 531.550781 473.675781 531.042969 473.882812 530.546875 474.117188 C 530.050781 474.351562 529.570312 474.609375 529.101562 474.894531 C 528.632812 475.179688 528.179688 475.488281 527.742188 475.820312 C 527.304688 476.152344 526.886719 476.507812 526.488281 476.882812 C 526.085938 477.261719 525.707031 477.65625 525.351562 478.070312 C 524.992188 478.488281 524.65625 478.921875 524.34375 479.371094 C 524.03125 479.820312 523.742188 480.289062 523.476562 480.769531 C 523.214844 481.25 522.976562 481.742188 522.761719 482.25 C 522.550781 482.753906 522.367188 483.269531 522.207031 483.796875 C 522.046875 484.320312 521.917969 484.855469 521.816406 485.394531 C 521.710938 485.933594 521.636719 486.476562 521.589844 487.019531 C 521.546875 487.566406 521.527344 488.117188 521.539062 488.664062 C 521.550781 489.214844 521.589844 489.761719 521.660156 490.304688 C 521.726562 490.847656 521.824219 491.386719 521.949219 491.921875 C 522.074219 492.457031 522.226562 492.984375 522.40625 493.5 C 528.730469 511.820312 527.765625 531.394531 527.664062 550.839844 C 527.644531 555.3125 527.628906 559.78125 527.621094 564.257812 C 527.617188 566.105469 527.519531 567.949219 527.335938 569.785156 C 527.152344 571.621094 526.878906 573.445312 526.515625 575.257812 C 526.148438 577.066406 525.699219 578.855469 525.160156 580.621094 C 524.621094 582.386719 523.996094 584.125 523.285156 585.828125 C 522.578125 587.535156 521.785156 589.199219 520.914062 590.828125 C 520.039062 592.453125 519.089844 594.035156 518.0625 595.570312 C 517.03125 597.105469 515.933594 598.582031 514.757812 600.011719 C 513.585938 601.4375 512.34375 602.800781 511.039062 604.105469 C 509.730469 605.410156 508.363281 606.648438 506.933594 607.816406 C 505.503906 608.988281 504.023438 610.085938 502.488281 611.109375 C 500.949219 612.132812 499.367188 613.082031 497.738281 613.949219 C 496.109375 614.820312 494.441406 615.609375 492.734375 616.3125 C 491.027344 617.019531 489.289062 617.640625 487.523438 618.175781 C 485.753906 618.710938 483.964844 619.15625 482.15625 619.515625 C 480.34375 619.878906 478.519531 620.148438 476.679688 620.328125 C 474.84375 620.507812 473 620.597656 471.15625 620.597656 L 469.882812 620.597656 C 468.03125 620.597656 466.1875 620.507812 464.347656 620.328125 C 462.507812 620.144531 460.679688 619.875 458.867188 619.511719 C 457.050781 619.152344 455.261719 618.703125 453.492188 618.167969 C 451.722656 617.628906 449.980469 617.007812 448.273438 616.300781 C 446.566406 615.59375 444.894531 614.804688 443.265625 613.929688 C 441.632812 613.058594 440.050781 612.109375 438.511719 611.082031 C 436.972656 610.054688 435.492188 608.953125 434.0625 607.78125 C 432.632812 606.609375 431.261719 605.367188 429.953125 604.058594 C 428.648438 602.753906 427.40625 601.382812 426.234375 599.953125 C 425.058594 598.523438 423.960938 597.039062 422.933594 595.503906 C 421.90625 593.964844 420.957031 592.382812 420.082031 590.75 C 419.210938 589.121094 418.421875 587.449219 417.714844 585.742188 C 417.007812 584.03125 416.382812 582.292969 415.847656 580.523438 C 415.3125 578.753906 414.863281 576.960938 414.5 575.148438 C 414.140625 573.335938 413.871094 571.507812 413.6875 569.667969 C 413.507812 567.828125 413.417969 565.980469 413.417969 564.132812 Z M 413.417969 563.792969 " fill-opacity="1" fill-rule="nonzero"/></svg>