<svg xmlns="http://www.w3.org/2000/svg" xmlns:xlink="http://www.w3.org/1999/xlink" width="1204" zoomAndPan="magnify" viewBox="0 0 902.88 809.999993" height="1080" preserveAspectRatio="xMidYMid meet" version="1.0"><defs><clipPath id="ea71fb60bf"><path d="M 128 81.042969 L 775 81.042969 L 775 728.957031 L 128 728.957031 Z M 128 81.042969 " clip-rule="nonzero"/></clipPath></defs><g clip-path="url(#ea71fb60bf)"><path fill="#dd5390" d="M 618.144531 728.957031 L 286.453125 728.957031 C 198.804688 728.957031 128.34375 658.496094 128.34375 570.84375 L 128.34375 239.15625 C 128.34375 151.503906 198.804688 81.042969 286.453125 81.042969 L 616.425781 81.042969 C 704.074219 81.042969 774.539062 151.503906 774.539062 239.15625 L 774.539062 569.125 C 774.539062 656.777344 704.074219 727.238281 616.425781 727.238281 Z M 286.453125 132.601562 C 228.019531 132.601562 179.902344 180.722656 179.902344 239.15625 L 179.902344 569.125 C 179.902344 627.558594 228.019531 675.679688 286.453125 675.679688 L 616.425781 675.679688 C 674.859375 675.679688 722.980469 627.558594 722.980469 569.125 L 722.980469 239.15625 C 722.980469 180.722656 674.859375 132.601562 616.425781 132.601562 Z M 286.453125 132.601562 " fill-opacity="1" fill-rule="nonzero"/></g><path fill="#dd5390" d="M 453.160156 613.808594 C 339.730469 613.808594 248.644531 522.722656 248.644531 409.296875 C 248.644531 295.867188 339.730469 204.78125 453.160156 204.78125 C 566.585938 204.78125 657.671875 295.867188 657.671875 409.296875 C 657.671875 522.722656 566.585938 613.808594 453.160156 613.808594 Z M 453.160156 254.621094 C 367.226562 254.621094 298.484375 323.367188 298.484375 409.296875 C 298.484375 495.226562 367.226562 563.972656 453.160156 563.972656 C 539.089844 563.972656 607.832031 495.226562 607.832031 409.296875 C 607.832031 323.367188 539.089844 254.621094 453.160156 254.621094 Z M 453.160156 254.621094 " fill-opacity="1" fill-rule="nonzero"/><path fill="#dd5390" d="M 453.160156 502.101562 C 401.601562 502.101562 360.355469 460.855469 360.355469 409.296875 C 360.355469 357.738281 401.601562 316.492188 453.160156 316.492188 C 504.714844 316.492188 545.964844 357.738281 545.964844 409.296875 C 545.964844 460.855469 504.714844 502.101562 453.160156 502.101562 Z M 453.160156 368.050781 C 430.816406 368.050781 411.914062 386.953125 411.914062 409.296875 C 411.914062 431.636719 430.816406 450.542969 453.160156 450.542969 C 475.5 450.542969 494.40625 431.636719 494.40625 409.296875 C 494.40625 386.953125 475.5 368.050781 453.160156 368.050781 Z M 453.160156 368.050781 " fill-opacity="1" fill-rule="nonzero"/><path fill="#dd5390" d="M 674.859375 216.8125 C 674.859375 217.9375 674.804688 219.0625 674.691406 220.183594 C 674.582031 221.300781 674.417969 222.414062 674.199219 223.519531 C 673.976562 224.621094 673.707031 225.714844 673.378906 226.789062 C 673.050781 227.867188 672.671875 228.925781 672.242188 229.964844 C 671.8125 231.007812 671.332031 232.023438 670.800781 233.015625 C 670.269531 234.007812 669.691406 234.972656 669.066406 235.910156 C 668.441406 236.84375 667.769531 237.746094 667.054688 238.617188 C 666.34375 239.488281 665.585938 240.320312 664.792969 241.117188 C 663.996094 241.914062 663.164062 242.667969 662.292969 243.382812 C 661.421875 244.097656 660.519531 244.765625 659.582031 245.390625 C 658.648438 246.015625 657.683594 246.59375 656.6875 247.125 C 655.695312 247.65625 654.679688 248.136719 653.640625 248.570312 C 652.601562 249 651.542969 249.378906 650.464844 249.703125 C 649.386719 250.03125 648.296875 250.304688 647.191406 250.523438 C 646.089844 250.742188 644.976562 250.910156 643.855469 251.019531 C 642.734375 251.128906 641.613281 251.183594 640.488281 251.183594 C 639.359375 251.183594 638.238281 251.128906 637.117188 251.019531 C 635.996094 250.910156 634.886719 250.742188 633.78125 250.523438 C 632.675781 250.304688 631.585938 250.03125 630.507812 249.703125 C 629.429688 249.378906 628.371094 249 627.332031 248.570312 C 626.292969 248.136719 625.277344 247.65625 624.285156 247.125 C 623.289062 246.59375 622.328125 246.015625 621.390625 245.390625 C 620.453125 244.765625 619.550781 244.097656 618.679688 243.382812 C 617.8125 242.667969 616.976562 241.914062 616.183594 241.117188 C 615.386719 240.320312 614.628906 239.488281 613.917969 238.617188 C 613.203125 237.746094 612.53125 236.84375 611.90625 235.910156 C 611.28125 234.972656 610.703125 234.007812 610.171875 233.015625 C 609.640625 232.023438 609.160156 231.007812 608.730469 229.964844 C 608.300781 228.925781 607.921875 227.867188 607.59375 226.789062 C 607.269531 225.714844 606.996094 224.621094 606.773438 223.519531 C 606.554688 222.414062 606.390625 221.300781 606.28125 220.183594 C 606.167969 219.0625 606.113281 217.9375 606.113281 216.8125 C 606.113281 215.6875 606.167969 214.5625 606.28125 213.445312 C 606.390625 212.324219 606.554688 211.210938 606.773438 210.105469 C 606.996094 209.003906 607.269531 207.914062 607.59375 206.835938 C 607.921875 205.757812 608.300781 204.699219 608.730469 203.660156 C 609.160156 202.621094 609.640625 201.601562 610.171875 200.609375 C 610.703125 199.617188 611.28125 198.652344 611.90625 197.714844 C 612.53125 196.78125 613.203125 195.878906 613.917969 195.007812 C 614.628906 194.136719 615.386719 193.304688 616.183594 192.507812 C 616.976562 191.710938 617.8125 190.957031 618.679688 190.242188 C 619.550781 189.527344 620.453125 188.859375 621.390625 188.234375 C 622.328125 187.609375 623.289062 187.03125 624.285156 186.5 C 625.277344 185.96875 626.292969 185.488281 627.332031 185.058594 C 628.371094 184.625 629.429688 184.246094 630.507812 183.921875 C 631.585938 183.59375 632.675781 183.320312 633.78125 183.101562 C 634.886719 182.882812 635.996094 182.714844 637.117188 182.605469 C 638.238281 182.496094 639.359375 182.441406 640.488281 182.441406 C 641.613281 182.441406 642.734375 182.496094 643.855469 182.605469 C 644.976562 182.714844 646.089844 182.882812 647.191406 183.101562 C 648.296875 183.320312 649.386719 183.59375 650.464844 183.921875 C 651.542969 184.246094 652.601562 184.625 653.640625 185.058594 C 654.679688 185.488281 655.695312 185.96875 656.6875 186.5 C 657.683594 187.03125 658.648438 187.609375 659.582031 188.234375 C 660.519531 188.859375 661.421875 189.527344 662.292969 190.242188 C 663.164062 190.957031 663.996094 191.710938 664.792969 192.507812 C 665.585938 193.304688 666.34375 194.136719 667.054688 195.007812 C 667.769531 195.878906 668.441406 196.78125 669.066406 197.714844 C 669.691406 198.652344 670.269531 199.617188 670.800781 200.609375 C 671.332031 201.601562 671.8125 202.621094 672.242188 203.660156 C 672.671875 204.699219 673.050781 205.757812 673.378906 206.835938 C 673.707031 207.914062 673.976562 209.003906 674.199219 210.105469 C 674.417969 211.210938 674.582031 212.324219 674.691406 213.445312 C 674.804688 214.5625 674.859375 215.6875 674.859375 216.8125 Z M 674.859375 216.8125 " fill-opacity="1" fill-rule="nonzero"/></svg>