<svg xmlns="http://www.w3.org/2000/svg" xmlns:xlink="http://www.w3.org/1999/xlink" width="1204" zoomAndPan="magnify" viewBox="0 0 902.88 809.999993" height="1080" preserveAspectRatio="xMidYMid meet" version="1.0"><defs><clipPath id="e05e45c333"><path d="M 127.484375 81.042969 L 775.398438 81.042969 L 775.398438 728.957031 L 127.484375 728.957031 Z M 127.484375 81.042969 " clip-rule="nonzero"/></clipPath></defs><path fill="#dd5390" d="M 278.53125 316.023438 L 326.453125 316.023438 C 327.054688 316.023438 327.652344 316.082031 328.246094 316.199219 C 328.835938 316.320312 329.410156 316.492188 329.96875 316.722656 C 330.527344 316.953125 331.054688 317.238281 331.558594 317.574219 C 332.058594 317.910156 332.523438 318.289062 332.949219 318.714844 C 333.378906 319.144531 333.757812 319.605469 334.09375 320.109375 C 334.429688 320.609375 334.710938 321.140625 334.941406 321.699219 C 335.175781 322.253906 335.347656 322.828125 335.464844 323.421875 C 335.582031 324.011719 335.644531 324.609375 335.644531 325.214844 L 335.644531 588.804688 C 335.644531 589.410156 335.582031 590.007812 335.464844 590.597656 C 335.347656 591.191406 335.175781 591.765625 334.941406 592.320312 C 334.710938 592.878906 334.429688 593.410156 334.09375 593.910156 C 333.757812 594.414062 333.378906 594.878906 332.949219 595.304688 C 332.523438 595.730469 332.058594 596.113281 331.558594 596.445312 C 331.054688 596.78125 330.527344 597.066406 329.96875 597.296875 C 329.410156 597.527344 328.835938 597.703125 328.246094 597.820312 C 327.652344 597.9375 327.054688 597.996094 326.453125 597.996094 L 278.53125 597.996094 C 277.925781 597.996094 277.328125 597.9375 276.738281 597.820312 C 276.144531 597.703125 275.570312 597.527344 275.011719 597.296875 C 274.457031 597.066406 273.925781 596.78125 273.425781 596.445312 C 272.921875 596.113281 272.457031 595.730469 272.03125 595.304688 C 271.605469 594.878906 271.222656 594.414062 270.886719 593.910156 C 270.554688 593.410156 270.269531 592.878906 270.039062 592.320312 C 269.808594 591.765625 269.632812 591.191406 269.515625 590.597656 C 269.398438 590.007812 269.339844 589.410156 269.339844 588.804688 L 269.339844 325.214844 C 269.339844 324.609375 269.398438 324.011719 269.515625 323.421875 C 269.632812 322.828125 269.808594 322.253906 270.039062 321.699219 C 270.269531 321.140625 270.554688 320.609375 270.886719 320.109375 C 271.222656 319.605469 271.605469 319.144531 272.03125 318.714844 C 272.457031 318.289062 272.921875 317.910156 273.421875 317.574219 C 273.925781 317.238281 274.457031 316.953125 275.011719 316.722656 C 275.570312 316.492188 276.144531 316.320312 276.738281 316.199219 C 277.328125 316.082031 277.925781 316.023438 278.53125 316.023438 Z M 278.53125 316.023438 " fill-opacity="1" fill-rule="nonzero"/><path fill="#dd5390" d="M 341.09375 250.992188 C 341.019531 228.394531 324.808594 212.003906 302.492188 212.003906 C 280.179688 212.003906 263.347656 228.832031 263.347656 251.148438 C 263.347656 261.535156 267.136719 271.195312 274.011719 278.347656 C 281.078125 285.699219 290.808594 289.75 301.402344 289.75 C 313.144531 289.75 323.625 285.613281 330.917969 278.054688 C 337.75 270.988281 341.359375 261.445312 341.097656 251.148438 C 341.097656 251.101562 341.09375 251.0625 341.09375 250.992188 Z M 341.09375 250.992188 " fill-opacity="1" fill-rule="nonzero"/><path fill="#dd5390" d="M 603.589844 334.566406 C 579.726562 313.222656 551.761719 310.03125 537.210938 310.03125 C 515.476562 310.03125 494.765625 315.839844 477.3125 326.832031 C 469.679688 331.636719 462.789062 337.332031 456.632812 343.921875 L 455.429688 324.621094 C 455.390625 324.042969 455.300781 323.472656 455.15625 322.910156 C 455.011719 322.347656 454.816406 321.804688 454.570312 321.28125 C 454.324219 320.757812 454.03125 320.257812 453.6875 319.789062 C 453.347656 319.320312 452.964844 318.886719 452.542969 318.492188 C 452.117188 318.09375 451.660156 317.742188 451.171875 317.429688 C 450.683594 317.121094 450.167969 316.859375 449.628906 316.648438 C 449.089844 316.433594 448.53125 316.273438 447.964844 316.164062 C 447.394531 316.058594 446.816406 316.003906 446.238281 316.007812 L 403.785156 316.007812 C 403.152344 316.007812 402.527344 316.070312 401.90625 316.199219 C 401.289062 316.328125 400.6875 316.519531 400.109375 316.773438 C 399.527344 317.027344 398.980469 317.335938 398.464844 317.703125 C 397.949219 318.066406 397.476562 318.484375 397.046875 318.945312 C 396.617188 319.410156 396.238281 319.914062 395.914062 320.453125 C 395.585938 320.996094 395.320312 321.566406 395.109375 322.164062 C 394.902344 322.761719 394.757812 323.371094 394.671875 324 C 394.589844 324.625 394.574219 325.253906 394.621094 325.886719 C 396.128906 346.003906 396.773438 367.136719 396.773438 396.539062 L 396.773438 588.804688 C 396.773438 589.410156 396.832031 590.007812 396.949219 590.597656 C 397.066406 591.191406 397.242188 591.765625 397.472656 592.320312 C 397.703125 592.878906 397.984375 593.410156 398.320312 593.910156 C 398.65625 594.414062 399.035156 594.878906 399.464844 595.304688 C 399.890625 595.730469 400.355469 596.113281 400.855469 596.445312 C 401.359375 596.78125 401.886719 597.066406 402.445312 597.296875 C 403.003906 597.527344 403.578125 597.703125 404.167969 597.820312 C 404.761719 597.9375 405.359375 597.996094 405.960938 597.996094 L 453.890625 597.996094 C 454.492188 597.996094 455.089844 597.9375 455.683594 597.820312 C 456.273438 597.703125 456.847656 597.527344 457.40625 597.296875 C 457.964844 597.066406 458.492188 596.78125 458.996094 596.445312 C 459.496094 596.113281 459.960938 595.730469 460.386719 595.304688 C 460.8125 594.878906 461.195312 594.414062 461.53125 593.910156 C 461.867188 593.410156 462.148438 592.878906 462.378906 592.320312 C 462.609375 591.765625 462.785156 591.191406 462.902344 590.597656 C 463.019531 590.007812 463.078125 589.410156 463.078125 588.804688 L 463.078125 430.324219 C 463.078125 422.875 464.066406 415.882812 465.796875 411.132812 C 465.84375 410.988281 465.894531 410.835938 465.941406 410.675781 C 472.421875 389.539062 492.089844 368.160156 521.417969 368.160156 C 539.574219 368.160156 552.605469 374.367188 561.261719 387.140625 C 569.074219 398.683594 573.210938 415.875 573.210938 436.847656 L 573.210938 588.804688 C 573.210938 589.410156 573.269531 590.007812 573.386719 590.597656 C 573.503906 591.191406 573.679688 591.765625 573.910156 592.320312 C 574.140625 592.878906 574.425781 593.410156 574.761719 593.910156 C 575.09375 594.414062 575.476562 594.878906 575.902344 595.304688 C 576.328125 595.730469 576.792969 596.113281 577.296875 596.445312 C 577.796875 596.78125 578.328125 597.066406 578.882812 597.296875 C 579.441406 597.527344 580.015625 597.703125 580.609375 597.820312 C 581.199219 597.9375 581.796875 597.996094 582.402344 597.996094 L 630.328125 597.996094 C 630.933594 597.996094 631.53125 597.9375 632.121094 597.820312 C 632.714844 597.703125 633.289062 597.527344 633.84375 597.296875 C 634.402344 597.066406 634.933594 596.78125 635.433594 596.445312 C 635.9375 596.113281 636.398438 595.730469 636.828125 595.304688 C 637.253906 594.878906 637.632812 594.414062 637.96875 593.910156 C 638.304688 593.410156 638.589844 592.878906 638.820312 592.320312 C 639.050781 591.765625 639.222656 591.191406 639.34375 590.597656 C 639.460938 590.007812 639.519531 589.410156 639.519531 588.804688 L 639.519531 431.414062 C 639.519531 408.988281 636.128906 389.113281 629.445312 372.34375 C 623.445312 357.257812 614.742188 344.546875 603.589844 334.566406 Z M 603.589844 334.566406 " fill-opacity="1" fill-rule="nonzero"/><g clip-path="url(#e05e45c333)"><path fill="#dd5390" d="M 691.046875 81.042969 L 211.832031 81.042969 C 165.320312 81.042969 127.484375 118.882812 127.484375 165.390625 L 127.484375 644.609375 C 127.484375 691.117188 165.320312 728.957031 211.832031 728.957031 L 691.046875 728.957031 C 737.554688 728.957031 775.398438 691.117188 775.398438 644.609375 L 775.398438 165.390625 C 775.398438 118.882812 737.554688 81.042969 691.046875 81.042969 Z M 716.171875 169.476562 L 716.171875 640.523438 C 716.167969 641.480469 716.121094 642.433594 716.027344 643.386719 C 715.933594 644.335938 715.789062 645.28125 715.605469 646.21875 C 715.417969 647.15625 715.183594 648.082031 714.90625 649 C 714.628906 649.914062 714.304688 650.8125 713.9375 651.695312 C 713.570312 652.578125 713.164062 653.441406 712.710938 654.285156 C 712.261719 655.128906 711.769531 655.949219 711.238281 656.742188 C 710.707031 657.539062 710.136719 658.304688 709.53125 659.042969 C 708.925781 659.78125 708.28125 660.488281 707.605469 661.167969 C 706.929688 661.84375 706.222656 662.484375 705.484375 663.089844 C 704.746094 663.699219 703.976562 664.265625 703.183594 664.796875 C 702.386719 665.328125 701.566406 665.820312 700.726562 666.273438 C 699.882812 666.722656 699.019531 667.132812 698.136719 667.5 C 697.253906 667.863281 696.351562 668.1875 695.4375 668.464844 C 694.523438 668.742188 693.597656 668.976562 692.660156 669.164062 C 691.722656 669.351562 690.777344 669.492188 689.824219 669.585938 C 688.875 669.679688 687.917969 669.730469 686.964844 669.730469 L 215.917969 669.730469 C 214.960938 669.730469 214.007812 669.679688 213.054688 669.585938 C 212.101562 669.492188 211.160156 669.351562 210.21875 669.164062 C 209.28125 668.976562 208.355469 668.742188 207.441406 668.464844 C 206.527344 668.1875 205.628906 667.863281 204.746094 667.5 C 203.859375 667.132812 202.996094 666.722656 202.15625 666.273438 C 201.3125 665.820312 200.492188 665.328125 199.699219 664.796875 C 198.902344 664.265625 198.136719 663.699219 197.398438 663.089844 C 196.65625 662.484375 195.949219 661.84375 195.273438 661.167969 C 194.597656 660.488281 193.957031 659.78125 193.347656 659.042969 C 192.742188 658.304688 192.171875 657.539062 191.640625 656.742188 C 191.109375 655.945312 190.617188 655.128906 190.167969 654.285156 C 189.714844 653.441406 189.308594 652.578125 188.941406 651.695312 C 188.574219 650.8125 188.253906 649.914062 187.972656 649 C 187.695312 648.082031 187.464844 647.15625 187.277344 646.21875 C 187.089844 645.28125 186.949219 644.335938 186.851562 643.386719 C 186.757812 642.433594 186.710938 641.480469 186.710938 640.523438 L 186.710938 169.476562 C 186.710938 168.519531 186.757812 167.566406 186.851562 166.613281 C 186.949219 165.664062 187.089844 164.71875 187.277344 163.78125 C 187.464844 162.84375 187.695312 161.917969 187.972656 161 C 188.253906 160.085938 188.574219 159.1875 188.941406 158.304688 C 189.308594 157.421875 189.714844 156.558594 190.167969 155.714844 C 190.617188 154.871094 191.109375 154.050781 191.640625 153.257812 C 192.171875 152.460938 192.742188 151.695312 193.347656 150.957031 C 193.957031 150.21875 194.597656 149.511719 195.273438 148.832031 C 195.949219 148.15625 196.65625 147.515625 197.398438 146.910156 C 198.136719 146.300781 198.902344 145.734375 199.699219 145.203125 C 200.492188 144.671875 201.3125 144.179688 202.15625 143.726562 C 202.996094 143.277344 203.859375 142.867188 204.746094 142.5 C 205.628906 142.136719 206.527344 141.8125 207.441406 141.535156 C 208.355469 141.257812 209.28125 141.023438 210.21875 140.835938 C 211.160156 140.648438 212.101562 140.507812 213.054688 140.414062 C 214.007812 140.320312 214.960938 140.269531 215.917969 140.269531 L 686.964844 140.269531 C 687.917969 140.269531 688.875 140.320312 689.824219 140.414062 C 690.777344 140.507812 691.722656 140.648438 692.660156 140.835938 C 693.597656 141.023438 694.523438 141.257812 695.4375 141.535156 C 696.351562 141.8125 697.253906 142.136719 698.136719 142.5 C 699.019531 142.867188 699.882812 143.277344 700.726562 143.726562 C 701.566406 144.179688 702.386719 144.671875 703.183594 145.203125 C 703.976562 145.734375 704.746094 146.300781 705.484375 146.910156 C 706.222656 147.515625 706.929688 148.15625 707.605469 148.832031 C 708.28125 149.507812 708.925781 150.21875 709.53125 150.957031 C 710.136719 151.695312 710.707031 152.460938 711.238281 153.257812 C 711.769531 154.050781 712.261719 154.871094 712.710938 155.714844 C 713.164062 156.558594 713.570312 157.421875 713.9375 158.304688 C 714.304688 159.1875 714.628906 160.085938 714.90625 161 C 715.183594 161.917969 715.417969 162.84375 715.605469 163.78125 C 715.789062 164.71875 715.933594 165.664062 716.027344 166.613281 C 716.121094 167.566406 716.167969 168.519531 716.171875 169.476562 Z M 716.171875 169.476562 " fill-opacity="1" fill-rule="nonzero"/></g></svg>